HIERARCHY
ROOT Hips
{
  OFFSET -0.949901 96.935 0.952837
  CHANNELS 6 Xposition Yposition Zposition Zrotation Xrotation Yrotation
  JOINT Spine
  {
    OFFSET 0 10.1816 0.1315
    CHANNELS 6 Xposition Yposition Zposition Zrotation Xrotation Yrotation
    JOINT Spine1
    {
      OFFSET 0 10.0835 -1.0008
      CHANNELS 6 Xposition Yposition Zposition Zrotation Xrotation Yrotation
      JOINT Spine2
      {
        OFFSET 0 9.1 -1.3734
        CHANNELS 6 Xposition Yposition Zposition Zrotation Xrotation Yrotation
        JOINT Neck1
        {
          OFFSET 0 16.6717 -2.5162
          CHANNELS 6 Xposition Yposition Zposition Zrotation Xrotation Yrotation
          JOINT Neck2
          {
            OFFSET 0 9.6179 1.685
            CHANNELS 6 Xposition Yposition Zposition Zrotation Xrotation Yrotation
            JOINT Skull
            {
              OFFSET 0 7.59293 2.585
              CHANNELS 6 Xposition Yposition Zposition Zrotation Xrotation Yrotation
              End Site
              {
                OFFSET 0 0 0
              }
            }
          }
        }
        JOINT LeftShoulder
        {
          OFFSET 4.5704 10.946 -2.628
          CHANNELS 6 Xposition Yposition Zposition Zrotation Xrotation Yrotation
          JOINT LeftArm
          {
            OFFSET 10.5924 -0.5246 -2.2321
            CHANNELS 6 Xposition Yposition Zposition Zrotation Xrotation Yrotation
            JOINT LeftForeArm
            {
              OFFSET 27.8415 -0.0001 0
              CHANNELS 6 Xposition Yposition Zposition Zrotation Xrotation Yrotation
              JOINT LeftHand
              {
                OFFSET 28.3288 0 0
                CHANNELS 6 Xposition Yposition Zposition Zrotation Xrotation Yrotation
                JOINT LeftHandThumb1
                {
                  OFFSET 2.4661 -1.575 2.6824
                  CHANNELS 6 Xposition Yposition Zposition Zrotation Xrotation Yrotation
                  JOINT LeftHandThumb2
                  {
                    OFFSET 3.2298 -1.8647 1.8647
                    CHANNELS 6 Xposition Yposition Zposition Zrotation Xrotation Yrotation
                    End Site
                    {
                      OFFSET 2.6526 -1.5315 1.5315
                    }
                  }
                }
                JOINT LeftHandIndex1
                {
                  OFFSET 9.1093 -0.5171 2.2601
                  CHANNELS 6 Xposition Yposition Zposition Zrotation Xrotation Yrotation
                  JOINT LeftHandIndex2
                  {
                    OFFSET 3.6764 0 0
                    CHANNELS 6 Xposition Yposition Zposition Zrotation Xrotation Yrotation
                    End Site
                    {
                      OFFSET 2.8831 0 0
                    }
                  }
                }
                JOINT LeftHandMiddle1
                {
                  OFFSET 9.5334 0 0
                  CHANNELS 6 Xposition Yposition Zposition Zrotation Xrotation Yrotation
                  JOINT LeftHandMiddle2
                  {
                    OFFSET 3.6982 0 0
                    CHANNELS 6 Xposition Yposition Zposition Zrotation Xrotation Yrotation
                    End Site
                    {
                      OFFSET 2.9509 0 0
                    }
                  }
                }
                JOINT LeftHandRing1
                {
                  OFFSET 9.1045 -0.0439 -1.8651
                  CHANNELS 6 Xposition Yposition Zposition Zrotation Xrotation Yrotation
                  JOINT LeftHandRing2
                  {
                    OFFSET 3.154 0 0
                    CHANNELS 6 Xposition Yposition Zposition Zrotation Xrotation Yrotation
                    End Site
                    {
                      OFFSET 2.9377 0 0
                    }
                  }
                }
                JOINT LeftHandPinky1
                {
                  OFFSET 8.0778 -0.4887 -3.8061
                  CHANNELS 6 Xposition Yposition Zposition Zrotation Xrotation Yrotation
                  JOINT LeftHandPinky2
                  {
                    OFFSET 3.6 0 0
                    CHANNELS 6 Xposition Yposition Zposition Zrotation Xrotation Yrotation
                    End Site
                    {
                      OFFSET 2.1142 0 0
                    }
                  }
                }
              }
            }
          }
        }
        JOINT RightShoulder
        {
          OFFSET -4.57 10.9462 -2.628
          CHANNELS 6 Xposition Yposition Zposition Zrotation Xrotation Yrotation
          JOINT RightArm
          {
            OFFSET -10.5928 -0.5248 -2.2321
            CHANNELS 6 Xposition Yposition Zposition Zrotation Xrotation Yrotation
            JOINT RightForeArm
            {
              OFFSET -27.8415 0 0
              CHANNELS 6 Xposition Yposition Zposition Zrotation Xrotation Yrotation
              JOINT RightHand
              {
                OFFSET -28.3288 0 0.0001
                CHANNELS 6 Xposition Yposition Zposition Zrotation Xrotation Yrotation
                JOINT RightHandPinky1
                {
                  OFFSET -8.0767 -0.4885 -3.806
                  CHANNELS 6 Xposition Yposition Zposition Zrotation Xrotation Yrotation
                  JOINT RightHandPinky2
                  {
                    OFFSET -3.6 0 0.0001
                    CHANNELS 6 Xposition Yposition Zposition Zrotation Xrotation Yrotation
                    End Site
                    {
                      OFFSET -2.1142 0 0
                    }
                  }
                }
                JOINT RightHandRing1
                {
                  OFFSET -9.1036 -0.0439 -1.8651
                  CHANNELS 6 Xposition Yposition Zposition Zrotation Xrotation Yrotation
                  JOINT RightHandRing2
                  {
                    OFFSET -3.154 0 0
                    CHANNELS 6 Xposition Yposition Zposition Zrotation Xrotation Yrotation
                    End Site
                    {
                      OFFSET -2.9377 0 0
                    }
                  }
                }
                JOINT RightHandMiddle1
                {
                  OFFSET -9.5325 0 0
                  CHANNELS 6 Xposition Yposition Zposition Zrotation Xrotation Yrotation
                  JOINT RightHandMiddle2
                  {
                    OFFSET -3.6982 0 0
                    CHANNELS 6 Xposition Yposition Zposition Zrotation Xrotation Yrotation
                    End Site
                    {
                      OFFSET -2.9509 0 0
                    }
                  }
                }
                JOINT RightHandIndex1
                {
                  OFFSET -9.1083 -0.5168 2.2601
                  CHANNELS 6 Xposition Yposition Zposition Zrotation Xrotation Yrotation
                  JOINT RightHandIndex2
                  {
                    OFFSET -3.6764 0 0
                    CHANNELS 6 Xposition Yposition Zposition Zrotation Xrotation Yrotation
                    End Site
                    {
                      OFFSET -2.8831 0 0
                    }
                  }
                }
                JOINT RightHandThumb1
                {
                  OFFSET -2.4648 -1.5727 2.6826
                  CHANNELS 6 Xposition Yposition Zposition Zrotation Xrotation Yrotation
                  JOINT RightHandThumb2
                  {
                    OFFSET -3.2298 -1.8647 1.8647
                    CHANNELS 6 Xposition Yposition Zposition Zrotation Xrotation Yrotation
                    End Site
                    {
                      OFFSET -2.6526 -1.5314 1.5314
                    }
                  }
                }
              }
            }
          }
        }
      }
    }
  }
  JOINT LeftUpLeg
  {
    OFFSET 8.2078 -6.7517 -1.5996
    CHANNELS 6 Xposition Yposition Zposition Zrotation Xrotation Yrotation
    JOINT LeftLeg
    {
      OFFSET 0 -44.3705 0.2846
      CHANNELS 6 Xposition Yposition Zposition Zrotation Xrotation Yrotation
      JOINT LeftFoot
      {
        OFFSET 0 -44.4279 -2.9822
        CHANNELS 6 Xposition Yposition Zposition Zrotation Xrotation Yrotation
        End Site
        {
          OFFSET 0 -8.7287 10.7106
        }
      }
    }
  }
  JOINT RightUpLeg
  {
    OFFSET -8.2078 -6.7517 -1.5996
    CHANNELS 6 Xposition Yposition Zposition Zrotation Xrotation Yrotation
    JOINT RightLeg
    {
      OFFSET 0 -44.3705 0.2862
      CHANNELS 6 Xposition Yposition Zposition Zrotation Xrotation Yrotation
      JOINT RightFoot
      {
        OFFSET 0 -44.4277 -2.9838
        CHANNELS 6 Xposition Yposition Zposition Zrotation Xrotation Yrotation
        End Site
        {
          OFFSET 0 -8.7287 10.7106
        }
      }
    }
  }
}
MOTION
Frames:	6
Frame Time:	0.0416667
-2.11049 96.563 0.858841 -1.87451 -3.95025 -42.6442 4.44089e-016 10.1816 0.1315 -0.21629 5.90005 0.589279 0 10.0835 -1.0008 -0.363664 11.7989 1.06564 0 9.1 -1.3734 -0.363666 11.7988 1.06564 -2.22045e-016 16.6717 -2.5162 -0.629384 1.47255 -6.97916 -8.88178e-016 9.6179 1.685 -0.629396 1.47248 -6.97914 -3.55271e-015 7.59293 2.585 -0.629338 1.47262 -6.97908 4.5704 10.946 -2.628 -6.32869 1.31104 -3.16889 10.5924 -0.5246 -2.2321 -61.5165 -13.1115 -1.64808 27.8415 -0.0001 7.10543e-015 -2.79852 2.35874 -56.4141 28.3288 0 7.10543e-015 22.2321 2.6275 -5.56866 2.4661 -1.575 2.6824 -4.48445 10.5357 10.5707 3.2298 -1.8647 1.8647 1.75501 3.58756 8.11381 9.1093 -0.5171 2.2601 -37.2654 4.32959 -1.31426 3.6764 0 0 -50.6521 0.610367 -3.38758 9.5334 -1.42109e-014 1.42109e-014 -47.2905 -4.78522 4.53771 3.6982 7.10543e-015 -7.10543e-015 -56.0529 2.1251 -4.79206 9.1045 -0.0439 -1.8651 -62.3266 -11.2248 2.72245 3.154 0 0 -66.6381 2.88453 -3.64181 8.0778 -0.4887 -3.8061 -66.5891 -7.25006 -4.21517 3.6 0 -1.42109e-014 -73.6444 5.57915 -3.02789 -4.57 10.9462 -2.628 6.96081 2.88422 8.86019 -10.5928 -0.5248 -2.2321 64.7133 -20.0322 -14.9038 -27.8415 -7.10543e-015 0 3.47884 -0.923934 60.9452 -28.3288 -7.10543e-015 0.0001 -16.5295 5.43246 8.13595 -8.0767 -0.4885 -3.806 50.1331 -3.35279 7.00389 -3.6 3.55271e-015 0.0001 92.2434 13.1112 6.32625 -9.1036 -0.0439 -1.8651 50.3163 -1.71348 2.86452 -3.154 0 0 88.6271 9.02615 6.716 -9.5325 0 0 42.4312 -0.179418 0.637467 -3.6982 0 -7.10543e-015 81.8908 6.80977 6.67515 -9.1083 -0.5168 2.2601 46.6371 2.00176 -4.43313 -3.6764 0 0 60.4056 3.26213 4.81762 -2.4648 -1.5727 2.6826 12.5174 0.477083 -9.96905 -3.2298 -1.8647 1.8647 0.05294 9.96445 -18.1605 8.2078 -6.7517 -1.5996 12.0825 -24.0306 10.3678 3.55271e-015 -44.3705 0.2846 2.54942 34.4122 -13.7417 0 -44.4279 -2.9822 -9.26179 -7.20183 -0.501145 -8.2078 -6.7517 -1.5996 -15.141 1.75051 -14.8973 3.55271e-015 -44.3705 0.2862 -4.80207 30.1733 21.4579 0 -44.4277 -2.9838 5.14552 -27.2926 0.952546 
-2.23887 96.7569 0.784659 -1.96273 -3.81473 -47.4485 2.22045e-016 10.1816 0.1315 -0.122343 6.01411 -0.0889322 0 10.0835 -1.0008 -0.0659429 12.0285 -0.324875 2.22045e-016 9.1 -1.3734 -0.0659422 12.0285 -0.32488 -5.55112e-016 16.6717 -2.5162 -0.736736 1.32481 -6.90887 0 9.6179 1.685 -0.736744 1.32487 -6.90887 3.55271e-015 7.59293 2.585 -0.736731 1.32485 -6.90892 4.5704 10.946 -2.628 -6.37064 1.27733 -4.42716 10.5924 -0.5246 -2.2321 -61.5784 -14.0296 0.428844 27.8415 -0.0001 0 -2.84439 2.08918 -57.7642 28.3288 -7.10543e-015 0 22.1769 2.36265 -6.01829 2.4661 -1.575 2.6824 -4.0359 10.1436 10.5467 3.2298 -1.8647 1.8647 1.66353 3.49189 8.37623 9.1093 -0.5171 2.2601 -34.4973 4.02681 -2.20707 3.6764 0 0 -47.47 0.432764 -3.02787 9.5334 0 0 -44.6145 -4.64065 5.2211 3.6982 0 0 -52.8979 1.86839 -4.55358 9.1045 -0.0439 -1.8651 -59.9588 -11.0832 3.85787 3.154 7.10543e-015 0 -63.5786 2.6936 -3.60229 8.0778 -0.4887 -3.8061 -63.9585 -7.54433 -2.06183 3.6 0 0 -70.5413 5.41086 -3.25713 -4.57 10.9462 -2.628 7.06014 2.90299 7.22236 -10.5928 -0.5248 -2.2321 64.6333 -19.6087 -15.3841 -27.8415 -7.10543e-015 0 3.28709 -0.394577 61.9612 -28.3288 0 0.0001 -18.0729 5.40966 8.28668 -8.0767 -0.4885 -3.806 51.4568 -3.53155 7.18197 -3.6 0 0.0001 93.6098 13.2381 6.21313 -9.1036 -0.0439 -1.8651 51.8012 -1.80112 3.09864 -3.154 3.55271e-015 0 90.3768 9.23032 6.6941 -9.5325 -1.42109e-014 -1.06581e-014 43.8726 -0.162305 0.792705 -3.6982 0 -1.06581e-014 83.6378 7.01426 6.72591 -9.1083 -0.5168 2.2601 48.868 2.78322 -4.4721 -3.6764 0 7.10543e-015 61.5884 3.36248 4.94027 -2.4648 -1.5727 2.6826 12.6762 0.663056 -10.066 -3.2298 -1.8647 1.8647 0.0298627 10.0041 -18.1472 8.2078 -6.7517 -1.5996 13.2175 -22.3602 11.5102 0 -44.3705 0.2846 2.10701 33.8894 -10.1894 0 -44.4279 -2.9822 -10.1817 -7.40181 -0.524399 -8.2078 -6.7517 -1.5996 -15.661 -0.312064 -15.0798 0 -44.3705 0.2862 -5.6784 30.5581 23.2682 0 -44.4277 -2.9838 5.64685 -26.4857 1.20159 
-2.35748 96.9247 0.716084 -1.9616 -3.75597 -52.2161 0 10.1816 0.1315 -0.0789283 6.09193 -0.707582 -2.22045e-016 10.0835 -1.0008 0.159645 12.1828 -1.58436 0 9.1 -1.3734 0.159646 12.1828 -1.58438 3.88578e-016 16.6717 -2.5162 -0.883433 1.13385 -6.80713 -1.77636e-015 9.6179 1.685 -0.883425 1.13388 -6.80714 0 7.59293 2.585 -0.883381 1.13393 -6.80714 4.5704 10.946 -2.628 -6.38145 1.24273 -5.64244 10.5924 -0.5246 -2.2321 -61.2415 -14.9037 2.38499 27.8415 -0.0001 -1.42109e-014 -3.00155 1.58661 -58.9778 28.3288 -7.10543e-015 -7.10543e-015 22.1292 2.30343 -5.23213 2.4661 -1.575 2.6824 -3.63834 9.70472 10.3409 3.2298 -1.8647 1.8647 1.53065 3.44642 8.68756 9.1093 -0.5171 2.2601 -31.2364 3.55453 -3.04326 3.6764 0 0 -43.7911 0.252544 -2.60075 9.5334 0 0 -41.3936 -4.39038 5.97723 3.6982 7.10543e-015 0 -49.2812 1.59062 -4.264 9.1045 -0.0439 -1.8651 -57.0017 -10.7406 5.12602 3.154 0 7.10543e-015 -60.0144 2.47412 -3.54354 8.0778 -0.4887 -3.8061 -60.6723 -7.73931 0.362156 3.6 0 0 -66.8807 5.19671 -3.51547 -4.57 10.9462 -2.628 7.15436 2.91675 5.71345 -10.5928 -0.5248 -2.2321 64.3114 -19.54 -16.3547 -27.8415 -1.42109e-014 0 3.14527 -0.114224 63.0203 -28.3288 7.10543e-015 0.0001 -19.5028 5.20289 8.51535 -8.0767 -0.4885 -3.806 52.7231 -3.66499 7.41979 -3.6 0 0.0001 95.494 13.4329 6.01867 -9.1036 -0.0439 -1.8651 53.0604 -1.87417 3.29659 -3.154 0 7.10543e-015 92.0237 9.42151 6.66755 -9.5325 0 7.10543e-015 45.1447 -0.157548 0.913171 -3.6982 0 0 85.312 7.21148 6.76856 -9.1083 -0.5168 2.2601 51.0066 3.67282 -4.6363 -3.6764 -7.10543e-015 7.10543e-015 62.6737 3.45671 5.05093 -2.4648 -1.5727 2.6826 12.86 0.917005 -10.133 -3.2298 -1.8647 1.8647 0.00120636 10.0325 -18.187 8.2078 -6.7517 -1.5996 14.0161 -20.6744 12.4126 3.55271e-015 -44.3705 0.2846 1.69125 33.3966 -6.51379 0 -44.4279 -2.9822 -11.0521 -7.58671 -0.546488 -8.2078 -6.7517 -1.5996 -16.0966 -2.51566 -15.1804 0 -44.3705 0.2862 -6.61768 31.0753 24.6902 3.55271e-015 -44.4277 -2.9838 6.26211 -25.6041 1.44234 
-2.48487 97.0749 0.678083 -2.00578 -3.83146 -56.7543 0 10.1816 0.1315 -0.132996 6.14531 -1.13601 4.44089e-016 10.0835 -1.0008 0.190462 12.2887 -2.44517 2.22045e-016 9.1 -1.3734 0.190457 12.2887 -2.44515 3.33067e-016 16.6717 -2.5162 -0.989344 0.954693 -6.75199 -1.77636e-015 9.6179 1.685 -0.989373 0.954756 -6.75196 0 7.59293 2.585 -0.989377 0.95467 -6.75201 4.5704 10.946 -2.628 -6.27392 1.19252 -6.8478 10.5924 -0.5246 -2.2321 -60.4856 -15.6389 3.75756 27.8415 -0.0001 -7.10543e-015 -3.14173 1.02062 -60.0308 28.3288 0 0 23.4778 2.0155 -4.77096 2.4661 -1.575 2.6824 -3.24625 9.08685 9.98229 3.2298 -1.8647 1.8647 1.38112 3.42223 9.00493 9.1093 -0.5171 2.2601 -27.5242 2.97209 -3.82763 3.6764 0 -7.10543e-015 -39.8054 0.0888406 -2.12622 9.5334 0 0 -37.7458 -4.02375 6.73869 3.6982 0 0 -45.3071 1.3071 -3.92673 9.1045 -0.0439 -1.8651 -53.5839 -10.2072 6.46263 3.154 3.55271e-015 0 -56.1628 2.24145 -3.46506 8.0778 -0.4887 -3.8061 -56.9581 -7.81754 2.91005 3.6 3.55271e-015 0 -62.9268 4.94742 -3.77867 -4.57 10.9462 -2.628 7.74552 2.93054 3.39712 -10.5928 -0.5248 -2.2321 63.2424 -19.1994 -17.0578 -27.8415 1.42109e-014 0 3.23405 0.540184 63.5405 -28.3288 0 0.0001 -20.2972 5.06368 8.52847 -8.0767 -0.4885 -3.806 54.0298 -3.79175 7.68378 -3.6 0 0.0001 97.2504 13.6134 5.84112 -9.1036 -0.0439 -1.8651 54.3646 -1.9538 3.48615 -3.154 0 3.55271e-015 93.6261 9.60793 6.63673 -9.5325 0 0 46.4169 -0.127147 1.05799 -3.6982 7.10543e-015 7.10543e-015 86.8523 7.39403 6.80269 -9.1083 -0.5168 2.2601 53.066 4.65892 -4.82617 -3.6764 0 3.55271e-015 63.6804 3.54597 5.15196 -2.4648 -1.5727 2.6826 12.6831 0.614044 -10.4892 -3.2298 -1.8647 1.8647 0.208537 10.2218 -18.0833 8.2078 -6.7517 -1.5996 14.5162 -18.9259 13.1349 3.55271e-015 -44.3705 0.2846 1.29194 32.9693 -2.94872 -3.55271e-015 -44.4279 -2.9822 -11.7472 -7.79011 -0.571831 -8.2078 -6.7517 -1.5996 -16.3202 -4.5536 -15.0987 -3.55271e-015 -44.3705 0.2862 -7.68608 31.5656 25.6177 0 -44.4277 -2.9838 6.96896 -24.7134 1.65145 
-2.6042 97.2184 0.655283 -2.05094 -3.97032 -61.2257 -4.44089e-016 10.1816 0.1315 -0.223531 6.15687 -1.4769 0 10.0835 -1.0008 0.160289 12.3118 -3.12182 6.66134e-016 9.1 -1.3734 0.160293 12.3118 -3.12184 1.11022e-016 16.6717 -2.5162 -1.07303 0.809412 -6.6834 1.77636e-015 9.6179 1.685 -1.07303 0.809409 -6.68342 3.55271e-015 7.59293 2.585 -1.07297 0.809487 -6.68336 4.5704 10.946 -2.628 -6.18009 1.14945 -7.86715 10.5924 -0.5246 -2.2321 -59.1833 -16.2804 4.92175 27.8415 -0.0001 -7.10543e-015 -3.26196 0.637082 -60.7385 28.3288 0 7.10543e-015 24.8627 1.77956 -4.51646 2.4661 -1.575 2.6824 -2.96405 8.51147 9.61938 3.2298 -1.8647 1.8647 1.27579 3.39143 9.21126 9.1093 -0.5171 2.2601 -23.4079 2.32775 -4.55219 3.6764 0 1.42109e-014 -35.726 -0.0441549 -1.63014 9.5334 0 7.10543e-015 -33.7182 -3.53866 7.43649 3.6982 0 0 -41.236 1.04164 -3.56196 9.1045 -0.0439 -1.8651 -49.6226 -9.53534 7.87141 3.154 -7.10543e-015 -7.10543e-015 -52.1208 2.00352 -3.36595 8.0778 -0.4887 -3.8061 -52.9686 -7.80259 5.52364 3.6 0 7.10543e-015 -58.8419 4.6712 -4.03171 -4.57 10.9462 -2.628 8.85757 2.90892 1.35908 -10.5928 -0.5248 -2.2321 61.454 -18.8852 -17.9037 -27.8415 0 -1.42109e-014 3.37194 1.20281 63.8978 -28.3288 0 0.0001 -21.2733 4.74311 8.73689 -8.0767 -0.4885 -3.806 55.0694 -3.93555 7.81075 -3.6 0 0.0001 98.562 13.7467 5.70581 -9.1036 -0.0439 -1.8651 55.4175 -2.01632 3.64499 -3.154 3.55271e-015 -3.55271e-015 95.0282 9.77013 6.60538 -9.5325 0 0 47.3894 -0.111644 1.14756 -3.6982 0 -3.55271e-015 88.2056 7.55567 6.8286 -9.1083 -0.5168 2.2601 54.9289 5.69804 -5.05761 -3.6764 3.55271e-015 7.10543e-015 64.6107 3.62997 5.24391 -2.4648 -1.5727 2.6826 12.7895 0.797295 -10.5483 -3.2298 -1.8647 1.8647 0.184737 10.2491 -18.1098 8.2078 -6.7517 -1.5996 14.7732 -17.1054 13.7118 0 -44.3705 0.2846 0.896828 32.4454 0.666899 0 -44.4279 -2.9822 -12.5756 -7.93253 -0.593083 -8.2078 -6.7517 -1.5996 -16.3464 -6.50452 -14.7798 -3.55271e-015 -44.3705 0.2862 -8.82828 31.9122 26.2271 0 -44.4277 -2.9838 7.6761 -23.8499 1.81628 
-2.72136 97.3642 0.677599 -2.15654 -4.09873 -65.5731 8.88178e-016 10.1816 0.1315 -0.277995 6.14415 -1.81413 -4.44089e-016 10.0835 -1.0008 0.20053 12.2853 -3.79008 0 9.1 -1.3734 0.200527 12.2853 -3.79008 -2.22045e-016 16.6717 -2.5162 -1.14708 0.696318 -6.59436 0 9.6179 1.685 -1.14707 0.696326 -6.59438 0 7.59293 2.585 -1.14712 0.696252 -6.59442 4.5704 10.946 -2.628 -5.78152 1.06965 -8.53211 10.5924 -0.5246 -2.2321 -58.5013 -16.9442 5.67408 27.8415 -0.0001 7.10543e-015 -3.52519 -0.34359 -60.6461 28.3288 0 0 25.273 1.5268 -3.55026 2.4661 -1.575 2.6824 -2.84818 8.28262 9.37263 3.2298 -1.8647 1.8647 1.292 3.29697 9.17555 9.1093 -0.5171 2.2601 -19.0377 1.64911 -5.15075 3.6764 2.84217e-014 7.10543e-015 -31.5016 -0.144209 -1.10801 9.5334 0 0 -29.4376 -2.967 8.10648 3.6982 0 0 -37.0186 0.794756 -3.16554 9.1045 -0.0439 -1.8651 -45.3524 -8.75119 9.28281 3.154 0 7.10543e-015 -47.8957 1.76293 -3.24472 8.0778 -0.4887 -3.8061 -48.6823 -7.6499 8.12534 3.6 -7.10543e-015 0 -54.5816 4.36461 -4.27398 -4.57 10.9462 -2.628 9.62937 2.8692 -0.0844368 -10.5928 -0.5248 -2.2321 59.8654 -18.7753 -18.6875 -27.8415 -1.42109e-014 1.42109e-014 3.60321 1.72776 63.615 -28.3288 1.42109e-014 0.0001 -21.7672 4.56583 9.15262 -8.0767 -0.4885 -3.806 56.0633 -4.04059 7.97771 -3.6 -3.55271e-015 0.0001 100.061 13.8952 5.54746 -9.1036 -0.0439 -1.8651 56.4231 -2.06198 3.81294 -3.154 -3.55271e-015 3.55271e-015 96.3293 9.91933 6.57259 -9.5325 1.42109e-014 0 48.4543 -0.0969544 1.23534 -3.6982 0 0 89.493 7.70997 6.84969 -9.1083 -0.5168 2.2601 56.6591 6.77165 -5.30522 -3.6764 0 7.10543e-015 65.2699 3.69031 5.30822 -2.4648 -1.5727 2.6826 12.7713 0.78932 -10.6998 -3.2298 -1.8647 1.8647 0.247018 10.3288 -18.1083 8.2078 -6.7517 -1.5996 14.8869 -15.2233 14.199 3.55271e-015 -44.3705 0.2846 0.522295 31.8399 4.21202 3.55271e-015 -44.4279 -2.9822 -13.5189 -8.05411 -0.612564 -8.2078 -6.7517 -1.5996 -16.3144 -8.25593 -14.4306 0 -44.3705 0.2862 -9.72678 32.0675 26.7291 0 -44.4277 -2.9838 8.41954 -22.8509 1.9173 
